# xmcd
#
# Track frame offsets:
#	150
#	12644
#	48395
#	77547
#	108791
#	136879
#	166782
#	196306
#	229876
#	262318
#	301290
#
# Disc length: 4584 seconds
#
# Revision: 0
# Processed by: cddbd v1.5.2PL0 Copyright (c) Steve Scherf et al.
# Submitted via: EasyCDDAExtractor 9.0.0.1
#
DISCID=8b11e60b
DTITLE=Black Sabbath - EJ Nutter Center Dayton OH 12-02-99 Master Disc 1
DYEAR=1999
DGENRE=Hard Rock
TTITLE0=Intro
TTITLE1=War Pigs
TTITLE2=NIB
TTITLE3=Faries Wear Boots
TTITLE4=After Forever
TTITLE5=Electric Funeral
TTITLE6=Sweet Leaf
TTITLE7=Into The Void
TTITLE8=Snowblind
TTITLE9=Dirty Women
TTITLE10=Black Sabbath
EXTD=
EXTT0=
EXTT1=
EXTT2=
EXTT3=
EXTT4=
EXTT5=
EXTT6=
EXTT7=
EXTT8=
EXTT9=
EXTT10=
PLAYORDER=
